<svg xmlns="http://www.w3.org/2000/svg" width="1280" height="640" viewBox="0 0 1280 640"><defs><linearGradient id="gold" x1="0" x2="0" y1="0" y2="1"><stop offset="0%" stop-color="#ffe66d"/><stop offset="55%" stop-color="#e5a93b"/><stop offset="100%" stop-color="#c87a1d"/></linearGradient><linearGradient id="cyan" x1="0" x2="1" y1="0" y2="1"><stop offset="0%" stop-color="#00f0ff"/><stop offset="100%" stop-color="#07a"/></linearGradient><radialGradient id="glow" cx="50%" cy="40%" r="60%"><stop offset="0%" stop-color="#0e2a3a" stop-opacity=".95"/><stop offset="100%" stop-color="#04070a" stop-opacity="0"/></radialGradient><filter id="soft" width="160%" height="160%" x="-30%" y="-30%"><feGaussianBlur result="b" stdDeviation="5"/><feMerge><feMergeNode in="b"/><feMergeNode in="SourceGraphic"/></feMerge></filter><pattern id="grid" width="40" height="40" patternUnits="userSpaceOnUse"><path fill="none" stroke="#0d2230" stroke-width="1" d="M40 0H0V40"/></pattern></defs><rect width="1280" height="640" fill="#060b10"/><rect width="1280" height="640" fill="url(#grid)" opacity=".45"/><rect width="1280" height="640" fill="url(#glow)"/><g fill="none" stroke="url(#cyan)" stroke-width="1.5" opacity=".3"><path d="M0 120 H180 L220 160 H400"/><path d="M1280 140 H1080 L1040 180 H900"/><path d="M0 520 H240 L280 480 H440"/><path d="M1280 500 H1060 L1020 460 H880"/><circle cx="400" cy="160" r="4" fill="#00f0ff"/><circle cx="900" cy="180" r="4" fill="#00f0ff"/><circle cx="440" cy="480" r="4" fill="#00f0ff"/><circle cx="880" cy="460" r="4" fill="#00f0ff"/></g><g fill="#0f3a4a" font-family="monospace" font-size="13" opacity=".45"><text x="60" y="80">1 0 1 1 0 0 1</text><text x="1080" y="90">0 1 1 0 1 0</text><text x="90" y="590">0 1 0 0 1 1</text><text x="1050" y="580">1 1 0 1 0 0 1</text></g><g filter="url(#soft)" transform="translate(640 195)"><path fill="url(#cyan)" d="M-46 -6 C-130 -14 -200 -52 -240 -98 C-182 -72 -126 -62 -74 -58 C-116 -78 -156 -108 -176 -144 C-124 -112 -72 -92 -32 -82 Z" opacity=".9"/><path fill="url(#cyan)" d="M46 -6 C130 -14 200 -52 240 -98 C182 -72 126 -62 74 -58 C116 -78 156 -108 176 -144 C124 -112 72 -92 32 -82 Z" opacity=".9"/><path fill="#12303f" stroke="#00f0ff" stroke-width="2.5" d="M-56 -24 C-56 -86 56 -86 56 -24 L56 16 C56 34 -56 34 -56 16 Z"/><rect width="112" height="11" x="-56" y="-8" fill="#00f0ff" opacity=".95" rx="2"/></g><text x="640" y="390" fill="url(#gold)" filter="url(#soft)" font-family="'DejaVu Sans', sans-serif" font-size="132" font-weight="bold" letter-spacing="16" text-anchor="middle">KERUX</text><text x="640" y="442" fill="#7fd8e8" filter="url(#soft)" font-family="'DejaVu Sans', sans-serif" font-size="27" letter-spacing="5" text-anchor="middle">κῆρυξ · messenger of the gods</text><text x="640" y="508" fill="#fff" filter="url(#soft)" font-family="'DejaVu Sans', sans-serif" font-size="31" font-weight="bold" letter-spacing="4" text-anchor="middle">FAST · SELF-CONTAINED · RUST</text><rect width="1252" height="612" x="14" y="14" fill="none" stroke="url(#cyan)" stroke-width="2" opacity=".8"/><g fill="none" stroke="#00f0ff" stroke-width="3" opacity=".9"><path d="M14 54 V14 H54"/><path d="M1226 14 H1266 V54"/><path d="M1266 586 V626 H1226"/><path d="M54 626 H14 V586"/></g></svg>